<?xml version="1.0" encoding="UTF-8"?>
<svg xmlns="http://www.w3.org/2000/svg" xmlns:xlink="http://www.w3.org/1999/xlink" width="48px" height="48px" viewBox="0 0 48 48" version="1.1">
<g id="surface1">
<path style=" stroke:none;fill-rule:nonzero;fill:rgb(87.058824%,29.803923%,21.176471%);fill-opacity:1;" d="M 47.09375 21.863281 L 26.136719 0.90625 C 24.929688 -0.300781 22.972656 -0.300781 21.765625 0.90625 L 17.414062 5.257812 L 22.933594 10.777344 C 24.21875 10.34375 25.6875 10.636719 26.710938 11.65625 C 27.738281 12.6875 28.027344 14.171875 27.582031 15.457031 L 32.902344 20.777344 C 34.191406 20.335938 35.675781 20.621094 36.703125 21.652344 C 38.140625 23.085938 38.140625 25.414062 36.703125 26.851562 C 35.265625 28.289062 32.9375 28.289062 31.5 26.851562 C 30.421875 25.769531 30.152344 24.183594 30.699219 22.851562 L 25.738281 17.890625 L 25.738281 30.945312 C 26.097656 31.125 26.425781 31.359375 26.710938 31.644531 C 28.148438 33.078125 28.148438 35.40625 26.710938 36.84375 C 25.273438 38.28125 22.945312 38.28125 21.511719 36.84375 C 20.074219 35.40625 20.074219 33.078125 21.511719 31.644531 C 21.855469 31.296875 22.265625 31.027344 22.714844 30.839844 L 22.714844 17.660156 C 22.261719 17.476562 21.855469 17.203125 21.511719 16.859375 C 20.421875 15.773438 20.160156 14.175781 20.71875 12.839844 L 15.277344 7.394531 L 0.90625 21.765625 C -0.300781 22.972656 -0.300781 24.929688 0.90625 26.136719 L 21.863281 47.09375 C 23.070312 48.300781 25.027344 48.300781 26.234375 47.09375 L 47.09375 26.234375 C 48.300781 25.027344 48.300781 23.066406 47.09375 21.863281 "/>
</g>
</svg>
