<?xml version="1.0" encoding="UTF-8"?>
<svg xmlns="http://www.w3.org/2000/svg" xmlns:xlink="http://www.w3.org/1999/xlink" width="48px" height="48px" viewBox="0 0 48 48" version="1.1">
<g id="surface1">
<path style=" stroke:none;fill-rule:nonzero;fill:rgb(0%,0%,0%);fill-opacity:1;" d="M 22.429688 0.0117188 C 22.324219 0.0234375 21.996094 0.0546875 21.699219 0.078125 C 14.882812 0.691406 8.496094 4.371094 4.453125 10.027344 C 2.199219 13.167969 0.761719 16.734375 0.214844 20.511719 C 0.0234375 21.832031 0 22.21875 0 24.007812 C 0 25.796875 0.0234375 26.183594 0.214844 27.503906 C 1.519531 36.515625 7.933594 44.089844 16.632812 46.894531 C 18.191406 47.398438 19.832031 47.742188 21.699219 47.945312 C 22.429688 48.027344 25.570312 48.027344 26.300781 47.945312 C 29.523438 47.589844 32.253906 46.792969 34.945312 45.417969 C 35.359375 45.207031 35.4375 45.152344 35.382812 45.105469 C 35.34375 45.074219 33.585938 42.714844 31.472656 39.863281 L 27.636719 34.679688 L 22.828125 27.558594 C 20.179688 23.648438 18.003906 20.445312 17.984375 20.445312 C 17.964844 20.441406 17.945312 23.605469 17.9375 27.464844 C 17.921875 34.226562 17.917969 34.5 17.835938 34.660156 C 17.710938 34.890625 17.617188 34.984375 17.421875 35.085938 C 17.273438 35.160156 17.140625 35.175781 16.433594 35.175781 L 15.621094 35.175781 L 15.402344 35.039062 C 15.261719 34.949219 15.160156 34.832031 15.089844 34.695312 L 14.992188 34.484375 L 15 25.078125 L 15.015625 15.664062 L 15.160156 15.484375 C 15.234375 15.382812 15.394531 15.257812 15.507812 15.195312 C 15.699219 15.101562 15.773438 15.09375 16.585938 15.09375 C 17.542969 15.09375 17.703125 15.128906 17.953125 15.402344 C 18.023438 15.476562 20.625 19.402344 23.742188 24.125 C 26.855469 28.851562 31.117188 35.300781 33.210938 38.46875 L 37.011719 44.226562 L 37.203125 44.101562 C 38.90625 42.992188 40.707031 41.414062 42.136719 39.773438 C 45.171875 36.289062 47.128906 32.035156 47.785156 27.503906 C 47.976562 26.183594 48 25.796875 48 24.007812 C 48 22.21875 47.976562 21.832031 47.785156 20.511719 C 46.480469 11.5 40.066406 3.925781 31.367188 1.121094 C 29.832031 0.621094 28.199219 0.28125 26.371094 0.0742188 C 25.917969 0.0273438 22.816406 -0.0234375 22.429688 0.0117188 Z M 32.253906 14.53125 C 32.480469 14.644531 32.660156 14.859375 32.726562 15.082031 C 32.765625 15.207031 32.773438 17.816406 32.765625 23.695312 L 32.75 32.128906 L 31.261719 29.851562 L 29.769531 27.570312 L 29.769531 21.4375 C 29.769531 17.472656 29.789062 15.242188 29.816406 15.136719 C 29.894531 14.871094 30.058594 14.667969 30.28125 14.542969 C 30.476562 14.445312 30.546875 14.4375 31.28125 14.4375 C 31.976562 14.4375 32.097656 14.445312 32.253906 14.53125 Z M 32.253906 14.53125 "/>
</g>
</svg>
